<svg viewBox="0 0 653 653" color="text" width="20px" xmlns="http://www.w3.org/2000/svg" className="sc-bdnxRM kDWlca"><path fill="#F3BA2C" d="M308.99,0c11.47,0,22.94,0,34.4,0c0.58,0.92,1.53,0.56,2.31,0.6c15.39,0.86,30.64,2.83,45.71,5.98 c60.65,12.68,113.92,39.85,158.76,82.66c61.17,58.39,94.73,130.17,101.39,214.42c2.45,30.98,0.04,61.73-6.75,92.07 c-15.93,71.21-51.31,130.97-106.76,178.36c-56.33,48.13-121.89,73.88-195.9,77.9c-38.1,2.07-75.41-2.71-111.82-14.01 c-58.88-18.27-108.92-50.43-149.45-96.89C33.95,487.25,7.52,424.54,1.14,353.38c-0.3-3.32,0.1-6.74-1.14-9.96 c0-11.47,0-22.94,0-34.41c0.86-0.6,0.56-1.54,0.61-2.33c1.2-20.49,4.29-40.7,9.42-60.57c16.78-65.01,50.06-120.08,100.45-164.43 c53.93-47.48,117-74.1,188.58-80.54C302.37,0.84,305.79,1.28,308.99,0z M326.37,123.44c-41.45,41.45-83.06,83.07-124.31,124.32 c14.88,14.88,30.08,30.08,45.47,45.47c26-26.01,52.24-52.26,78.64-78.67c26.47,26.48,52.79,52.79,78.85,78.85 c15.46-15.46,30.68-30.68,45.66-45.65C409.23,206.31,367.61,164.68,326.37,123.44z M450.52,404.9c-15-15.01-30.25-30.26-46.07-46.1 c-26.02,26.04-52.3,52.35-79.02,79.1c-26.17-26.18-52.41-52.43-78.57-78.6c-15.06,15.17-30.23,30.44-45.14,45.45 c41.44,41.44,83.06,83.06,124.45,124.46C367.59,487.8,409.22,446.18,450.52,404.9z M326.34,280.32 c-15.3,15.31-30.79,30.81-46.02,46.05c15.16,15.18,30.59,30.63,45.7,45.76c15.33-15.33,30.82-30.82,46.06-46.06 C356.91,310.89,341.47,295.45,326.34,280.32z M213.82,326.29c-15.23-15.22-30.43-30.43-45.17-45.17 c-15.08,15.08-30.34,30.35-45.35,45.37c14.9,14.9,30.11,30.12,45.13,45.15C183.49,356.6,198.7,341.4,213.82,326.29z M438.44,326.04 c15.28,15.28,30.49,30.49,45.42,45.42c15.02-15.03,30.29-30.29,45.12-45.13c-15-15.01-30.25-30.26-45.41-45.42 C468.73,295.76,453.58,310.9,438.44,326.04z"></path><path fill="#FFFFFE" d="M326.37,123.44c41.24,41.24,82.86,82.87,124.31,124.32c-14.98,14.98-30.2,30.2-45.66,45.65 c-26.06-26.06-52.37-52.38-78.85-78.85c-26.4,26.41-52.64,52.66-78.64,78.67c-15.39-15.39-30.59-30.59-45.47-45.47 C243.31,206.51,284.92,164.89,326.37,123.44z"></path><path fill="#FFFFFE" d="M450.52,404.9c-41.3,41.29-82.93,82.9-124.35,124.31c-41.39-41.4-83.01-83.02-124.45-124.46 c14.91-15.01,30.07-30.28,45.14-45.45c26.16,26.17,52.4,52.42,78.57,78.6c26.72-26.74,53-53.05,79.02-79.1 C420.27,374.64,435.52,389.89,450.52,404.9z"></path><path fill="#FFFFFE" d="M326.34,280.32c15.13,15.13,30.56,30.57,45.74,45.75c-15.24,15.24-30.74,30.74-46.06,46.06 c-15.11-15.13-30.54-30.57-45.7-45.76C295.55,311.13,311.04,295.63,326.34,280.32z"></path><path fill="#FFFFFE" d="M213.82,326.29c-15.12,15.11-30.34,30.31-45.39,45.35c-15.02-15.03-30.23-30.25-45.13-45.15 c15.02-15.02,30.28-30.29,45.35-45.37C183.39,295.86,198.59,311.07,213.82,326.29z"></path><path fill="#FFFFFE" d="M438.44,326.04c15.14-15.14,30.29-30.29,45.13-45.13c15.16,15.16,30.4,30.41,45.41,45.42 c-14.84,14.84-30.1,30.11-45.12,45.13C468.93,356.53,453.72,341.32,438.44,326.04z"></path></svg>